<?xml version="1.0" encoding="us-ascii" standalone="no"?><svg xmlns="http://www.w3.org/2000/svg" xmlns:xlink="http://www.w3.org/1999/xlink" contentStyleType="text/css" height="339px" preserveAspectRatio="none" style="width:743px;height:339px;background:#FFFFFF;" version="1.1" viewBox="0 0 743 339" width="743px" zoomAndPan="magnify"><defs/><g><!--cluster Decentralized Climate\nFoundation DCIPs\nProcess--><g id="cluster_Decentralized Climate\nFoundation DCIPs\nProcess"><rect fill="none" height="326" rx="2.5" ry="2.5" style="stroke:#181818;stroke-width:1.0;" width="206.93" x="213" y="7"/><text fill="#000000" font-family="sans-serif" font-size="14" font-weight="bold" lengthAdjust="spacing" textLength="172" x="230.465" y="21.9951">Decentralized Climate</text><text fill="#000000" font-family="sans-serif" font-size="14" font-weight="bold" lengthAdjust="spacing" textLength="138" x="247.465" y="38.292">Foundation DCIPs</text><text fill="#000000" font-family="sans-serif" font-size="14" font-weight="bold" lengthAdjust="spacing" textLength="64" x="284.465" y="54.5889">Process</text></g><g id="elem_Discussion"><ellipse cx="316.474" cy="187.0013" fill="#F1F1F1" rx="83.834" ry="26.1113" style="stroke:#181818;stroke-width:0.5;"/><text fill="#000000" font-family="sans-serif" font-size="14" lengthAdjust="spacing" textLength="102" x="262.474" y="182.6004">Open Proposal</text><text fill="#000000" font-family="sans-serif" font-size="14" lengthAdjust="spacing" textLength="99" x="263.974" y="198.8972">on DCF Forum</text></g><g id="elem_FProposals"><ellipse cx="316.4673" cy="290.9953" fill="#F1F1F1" rx="87.4673" ry="26.1353" style="stroke:#181818;stroke-width:0.5;"/><text fill="#000000" font-family="sans-serif" font-size="14" lengthAdjust="spacing" textLength="107" x="259.9673" y="286.5945">Writes proposal</text><text fill="#000000" font-family="sans-serif" font-size="14" lengthAdjust="spacing" textLength="63" x="281.9673" y="302.8913">on DCIPs</text></g><g id="elem_VProposals"><ellipse cx="316.4673" cy="100.0011" fill="#F1F1F1" rx="85.2873" ry="26.1211" style="stroke:#181818;stroke-width:0.5;"/><text fill="#000000" font-family="sans-serif" font-size="14" lengthAdjust="spacing" textLength="104" x="261.4673" y="95.6003">Votes Proposal</text><text fill="#000000" font-family="sans-serif" font-size="14" lengthAdjust="spacing" textLength="53" x="286.9673" y="111.8971">on DAO</text></g><!--entity DCIPAuthor--><g id="elem_DCIPAuthor"><ellipse cx="48.5" cy="70.35" fill="#F1F1F1" rx="8" ry="8" style="stroke:#181818;stroke-width:0.5;"/><path d="M48.5,78.35 L48.5,105.35 M35.5,86.35 L61.5,86.35 M48.5,105.35 L35.5,120.35 M48.5,105.35 L61.5,120.35 " fill="none" style="stroke:#181818;stroke-width:0.5;"/><text fill="#000000" font-family="sans-serif" font-size="14" lengthAdjust="spacing" textLength="83" x="7" y="134.8451">DCIP Author</text></g><!--entity DCIPEditors--><g id="elem_DCIPEditors"><ellipse cx="48.5" cy="181.35" fill="#F1F1F1" rx="8" ry="8" style="stroke:#181818;stroke-width:0.5;"/><path d="M48.5,189.35 L48.5,216.35 M35.5,197.35 L61.5,197.35 M48.5,216.35 L35.5,231.35 M48.5,216.35 L61.5,231.35 " fill="none" style="stroke:#181818;stroke-width:0.5;"/><text fill="#000000" font-family="sans-serif" font-size="14" lengthAdjust="spacing" textLength="85" x="6" y="245.8451">DCIP Editors</text></g><!--entity DCFMembers--><g id="elem_DCFMembers"><ellipse cx="679.93" cy="106.2" fill="#F1F1F1" rx="8" ry="8" style="stroke:#181818;stroke-width:0.5;"/><path d="M679.93,114.2 L679.93,141.2 M666.93,122.2 L692.93,122.2 M679.93,141.2 L666.93,156.2 M679.93,141.2 L692.93,156.2 " fill="none" style="stroke:#181818;stroke-width:0.5;"/><text fill="#000000" font-family="sans-serif" font-size="14" lengthAdjust="spacing" textLength="114" x="622.93" y="170.6951">DAO/Foundation</text><text fill="#000000" font-family="sans-serif" font-size="14" lengthAdjust="spacing" textLength="65" x="622.93" y="186.992">Members</text></g><!--link FProposals to Discussion--><g id="link_FProposals_Discussion"><path d="M316.47,264.49 C316.47,250.67 316.47,233.67 316.47,219.12 " fill="none" id="FProposals-to-Discussion" style="stroke:#181818;stroke-width:1.0;"/><polygon fill="#181818" points="316.47,214.46,312.47,223.46,316.47,219.46,320.47,223.46,316.47,214.46" style="stroke:#181818;stroke-width:1.0;"/><text fill="#000000" font-family="sans-serif" font-size="13" lengthAdjust="spacing" textLength="68" x="270.97" y="243.5569">&#171;includes&#187;</text></g><!--link DCIPAuthor to Discussion--><g id="link_DCIPAuthor_Discussion"><path d="M90.27,114.47 C100.3,117.97 111.02,121.67 121,125 C164.09,139.4 212.79,154.92 250.67,166.84 " fill="none" id="DCIPAuthor-to-Discussion" style="stroke:#181818;stroke-width:1.0;"/><polygon fill="#181818" points="255.18,168.57,247.7939,162.055,250.4101,167.0705,245.3947,169.6868,255.18,168.57" style="stroke:#181818;stroke-width:1.0;"/><text fill="#000000" font-family="sans-serif" font-size="13" lengthAdjust="spacing" textLength="53" x="132.5" y="121.0669">Vet Idea</text></g><!--link DCIPEditors to Discussion--><g id="link_DCIPEditors_Discussion"><path d="M91.24,211.42 C120.83,211.34 161.43,210.47 197,207 C210.44,205.69 224.66,203.76 238.41,201.61 " fill="none" id="DCIPEditors-to-Discussion" style="stroke:#181818;stroke-width:1.0;"/><polygon fill="#181818" points="243.27,200.68,233.7536,198.1425,238.332,201.4649,235.0096,206.0433,243.27,200.68" style="stroke:#181818;stroke-width:1.0;"/><text fill="#000000" font-family="sans-serif" font-size="13" lengthAdjust="spacing" textLength="74" x="122" y="203.0669">Review Idea</text></g><!--reverse link Discussion to DCFMembers--><g id="link_Discussion_DCFMembers"><path d="M401.75,177.46 C456.3,171.23 528.84,162.82 592.93,155 C602.5,153.83 612.65,152.56 622.51,151.31 " fill="none" id="Discussion-backto-DCFMembers" style="stroke:#181818;stroke-width:1.0;"/><polygon fill="#181818" points="396.86,178.14,406.2579,181.0861,401.8273,177.569,405.3444,173.1384,396.86,178.14" style="stroke:#181818;stroke-width:1.0;"/><text fill="#000000" font-family="sans-serif" font-size="13" lengthAdjust="spacing" textLength="155" x="436.93" y="151.0669">Participate in Discussion</text></g><!--link DCIPAuthor to VProposals--><g id="link_DCIPAuthor_VProposals"><path d="M90.47,100 C126.25,100 179.44,100 225.13,100 " fill="none" id="DCIPAuthor-to-VProposals" style="stroke:#181818;stroke-width:1.0;"/><polygon fill="#181818" points="229.95,100,220.95,96,224.95,100,220.95,104,229.95,100" style="stroke:#181818;stroke-width:1.0;"/></g><!--reverse link VProposals to DCFMembers--><g id="link_VProposals_DCFMembers"><path d="M402.02,110.29 C469.98,118.56 563.54,129.95 622.63,137.15 " fill="none" id="VProposals-backto-DCFMembers" style="stroke:#181818;stroke-width:1.0;"/><polygon fill="#181818" points="397.35,109.6,405.8041,114.6525,402.3138,110.2008,406.7654,106.7104,397.35,109.6" style="stroke:#181818;stroke-width:1.0;"/></g><!--SRC=[RP71QeGm48RlFiNWNNfV5a5sA-oXA7km5ozfCjqTq4GoIHTQ-kwDLXijtfBCz-MVJ3fyT-0CMBhT7IYoA1qPdIH2EcFXVBhKXNVti1GCwRY5ttsw8fuLXIL7P3w8JFc2_HikI54zbSPh9SQeLi-rD1d3XRvr61YKg9qL7NsYWbD7lN3OwgXDmTpgsXg9p2by9G2UKGeEUZMWXb0Q38kkrHDUGccixzEnXpEnzCpZIrVMgoM73CFM2p6JKoxtyTffpAXieufg4feeV0Sb-f3bgmuES3oIbfrNo7aUmDNGCsKUUaF30HfqS54ePdIP_YvxnG_2HyJ_FYBpmt-s5jQHf25C6aXlPxJJKtmUx5szAly0]--></g></svg>