<?xml version="1.0" encoding="us-ascii" standalone="no"?><svg xmlns="http://www.w3.org/2000/svg" xmlns:xlink="http://www.w3.org/1999/xlink" contentStyleType="text/css" height="895px" preserveAspectRatio="none" style="width:367px;height:895px;background:#FFFFFF;" version="1.1" viewBox="0 0 367 895" width="367px" zoomAndPan="magnify"><defs/><g><ellipse cx="182.5" cy="20" fill="#222222" rx="10" ry="10" style="stroke:#222222;stroke-width:1.0;"/><rect fill="#F1F1F1" height="33.9688" rx="12.5" ry="12.5" style="stroke:#181818;stroke-width:0.5;" width="154" x="105.5" y="50"/><text fill="#000000" font-family="sans-serif" font-size="12" lengthAdjust="spacing" textLength="134" x="115.5" y="71.1387">Discuss idea in forum</text><rect fill="#F1F1F1" height="33.9688" rx="12.5" ry="12.5" style="stroke:#181818;stroke-width:0.5;" width="179" x="93" y="103.9688"/><text fill="#000000" font-family="sans-serif" font-size="12" lengthAdjust="spacing" textLength="159" x="103" y="125.1074">Create draft in markdown</text><rect fill="#F1F1F1" height="47.9375" rx="12.5" ry="12.5" style="stroke:#181818;stroke-width:0.5;" width="159" x="103" y="213.6479"/><text fill="#000000" font-family="sans-serif" font-size="12" lengthAdjust="spacing" textLength="139" x="113" y="234.7866">Comment, brainstorm,</text><text fill="#000000" font-family="sans-serif" font-size="12" lengthAdjust="spacing" textLength="134" x="113" y="248.7554">and consensus ideas</text><polygon fill="#F1F1F1" points="147.5,157.9375,217.5,157.9375,229.5,169.9375,217.5,181.9375,147.5,181.9375,135.5,169.9375,147.5,157.9375" style="stroke:#181818;stroke-width:0.5;"/><text fill="#000000" font-family="sans-serif" font-size="11" lengthAdjust="spacing" textLength="14" x="186.5" y="192.1479">no</text><text fill="#000000" font-family="sans-serif" font-size="11" lengthAdjust="spacing" textLength="70" x="147.5" y="173.7456">Draft ready?</text><text fill="#000000" font-family="sans-serif" font-size="11" lengthAdjust="spacing" textLength="20" x="115.5" y="167.3433">yes</text><rect fill="#F1F1F1" height="33.9688" rx="12.5" ry="12.5" style="stroke:#181818;stroke-width:0.5;" width="146" x="109.5" y="303.5854"/><text fill="#000000" font-family="sans-serif" font-size="12" lengthAdjust="spacing" textLength="126" x="119.5" y="324.7241">Fork DCIP repository</text><rect fill="#F1F1F1" height="33.9688" rx="12.5" ry="12.5" style="stroke:#181818;stroke-width:0.5;" width="280" x="42.5" y="357.5542"/><text fill="#000000" font-family="sans-serif" font-size="12" lengthAdjust="spacing" textLength="260" x="52.5" y="378.6929">Create the proposal draft post in the fork</text><rect fill="#F1F1F1" height="33.9688" rx="12.5" ry="12.5" style="stroke:#181818;stroke-width:0.5;" width="324" x="20.5" y="411.5229"/><text fill="#000000" font-family="sans-serif" font-size="12" lengthAdjust="spacing" textLength="304" x="30.5" y="432.6616">Submit improvement proposal (forked) for voting</text><rect fill="#555555" height="6" rx="2.5" ry="2.5" style="stroke:#555555;stroke-width:1.0;" width="293" x="36" y="521.2021"/><rect fill="#F1F1F1" height="47.9375" rx="12.5" ry="12.5" style="stroke:#181818;stroke-width:0.5;" width="112" x="50" y="547.2021"/><text fill="#000000" font-family="sans-serif" font-size="12" lengthAdjust="spacing" textLength="76" x="60" y="568.3408">Discuss and</text><text fill="#000000" font-family="sans-serif" font-size="12" lengthAdjust="spacing" textLength="92" x="60" y="582.3096">make changes</text><rect fill="#F1F1F1" height="33.9688" rx="12.5" ry="12.5" style="stroke:#181818;stroke-width:0.5;" width="125" x="190" y="554.1865"/><text fill="#000000" font-family="sans-serif" font-size="12" lengthAdjust="spacing" textLength="105" x="200" y="575.3252">Vote for blacklist</text><rect fill="#555555" height="6" rx="2.5" ry="2.5" style="stroke:#555555;stroke-width:1.0;" width="293" x="36" y="615.1396"/><polygon fill="#F1F1F1" points="128.5,656.1396,236.5,656.1396,248.5,668.1396,236.5,680.1396,128.5,680.1396,116.5,668.1396,128.5,656.1396" style="stroke:#181818;stroke-width:0.5;"/><text fill="#000000" font-family="sans-serif" font-size="11" lengthAdjust="spacing" textLength="108" x="128.5" y="671.9478">Changes required?</text><text fill="#000000" font-family="sans-serif" font-size="11" lengthAdjust="spacing" textLength="20" x="96.5" y="665.5454">yes</text><text fill="#000000" font-family="sans-serif" font-size="11" lengthAdjust="spacing" textLength="14" x="248.5" y="665.5454">no</text><rect fill="#F1F1F1" height="33.9688" rx="12.5" ry="12.5" style="stroke:#181818;stroke-width:0.5;" width="118" x="47.5" y="690.1396"/><text fill="#000000" font-family="sans-serif" font-size="12" lengthAdjust="spacing" textLength="98" x="57.5" y="711.2783">Modify proposal</text><rect fill="#F1F1F1" height="33.9688" rx="12.5" ry="12.5" style="stroke:#181818;stroke-width:0.5;" width="91" x="213" y="690.1396"/><text fill="#000000" font-family="sans-serif" font-size="12" lengthAdjust="spacing" textLength="71" x="223" y="711.2783">Black listed</text><ellipse cx="258.5" cy="755.1084" fill="none" rx="11" ry="11" style="stroke:#222222;stroke-width:1.0;"/><ellipse cx="258.5" cy="755.1084" fill="#222222" rx="6" ry="6" style="stroke:#111111;stroke-width:1.0;"/><polygon fill="#F1F1F1" points="126,465.4917,239,465.4917,251,477.4917,239,489.4917,126,489.4917,114,477.4917,126,465.4917" style="stroke:#181818;stroke-width:0.5;"/><text fill="#000000" font-family="sans-serif" font-size="11" lengthAdjust="spacing" textLength="14" x="186.5" y="499.7021">no</text><text fill="#000000" font-family="sans-serif" font-size="11" lengthAdjust="spacing" textLength="113" x="126" y="481.2998">proposal approved?</text><text fill="#000000" font-family="sans-serif" font-size="11" lengthAdjust="spacing" textLength="20" x="94" y="474.8975">yes</text><rect fill="#F1F1F1" height="33.9688" rx="12.5" ry="12.5" style="stroke:#181818;stroke-width:0.5;" width="179" x="93" y="808.1084"/><text fill="#000000" font-family="sans-serif" font-size="12" lengthAdjust="spacing" textLength="159" x="103" y="829.2471">Merge fork into the DCIPs</text><ellipse cx="182.5" cy="873.0771" fill="none" rx="11" ry="11" style="stroke:#222222;stroke-width:1.0;"/><ellipse cx="182.5" cy="873.0771" fill="#222222" rx="6" ry="6" style="stroke:#111111;stroke-width:1.0;"/><line style="stroke:#181818;stroke-width:1.0;" x1="182.5" x2="182.5" y1="30" y2="50"/><polygon fill="#181818" points="178.5,40,182.5,50,186.5,40,182.5,44" style="stroke:#181818;stroke-width:1.0;"/><line style="stroke:#181818;stroke-width:1.0;" x1="182.5" x2="182.5" y1="83.9688" y2="103.9688"/><polygon fill="#181818" points="178.5,93.9688,182.5,103.9688,186.5,93.9688,182.5,97.9688" style="stroke:#181818;stroke-width:1.0;"/><line style="stroke:#181818;stroke-width:1.0;" x1="182.5" x2="182.5" y1="181.9375" y2="213.6479"/><polygon fill="#181818" points="178.5,203.6479,182.5,213.6479,186.5,203.6479,182.5,207.6479" style="stroke:#181818;stroke-width:1.0;"/><line style="stroke:#181818;stroke-width:1.0;" x1="182.5" x2="182.5" y1="261.5854" y2="271.5854"/><line style="stroke:#181818;stroke-width:1.0;" x1="182.5" x2="274" y1="271.5854" y2="271.5854"/><polygon fill="#181818" points="270,229.2144,274,219.2144,278,229.2144,274,225.2144" style="stroke:#181818;stroke-width:1.0;"/><line style="stroke:#181818;stroke-width:1.0;" x1="274" x2="274" y1="169.9375" y2="271.5854"/><line style="stroke:#181818;stroke-width:1.0;" x1="274" x2="229.5" y1="169.9375" y2="169.9375"/><polygon fill="#181818" points="239.5,165.9375,229.5,169.9375,239.5,173.9375,235.5,169.9375" style="stroke:#181818;stroke-width:1.0;"/><line style="stroke:#181818;stroke-width:1.0;" x1="135.5" x2="91" y1="169.9375" y2="169.9375"/><polygon fill="#181818" points="87,215.2144,91,225.2144,95,215.2144,91,219.2144" style="stroke:#181818;stroke-width:1.0;"/><line style="stroke:#181818;stroke-width:1.0;" x1="91" x2="91" y1="169.9375" y2="283.5854"/><line style="stroke:#181818;stroke-width:1.0;" x1="91" x2="182.5" y1="283.5854" y2="283.5854"/><line style="stroke:#181818;stroke-width:1.0;" x1="182.5" x2="182.5" y1="283.5854" y2="303.5854"/><polygon fill="#181818" points="178.5,293.5854,182.5,303.5854,186.5,293.5854,182.5,297.5854" style="stroke:#181818;stroke-width:1.0;"/><line style="stroke:#181818;stroke-width:1.0;" x1="182.5" x2="182.5" y1="137.9375" y2="157.9375"/><polygon fill="#181818" points="178.5,147.9375,182.5,157.9375,186.5,147.9375,182.5,151.9375" style="stroke:#181818;stroke-width:1.0;"/><line style="stroke:#181818;stroke-width:1.0;" x1="182.5" x2="182.5" y1="337.5542" y2="357.5542"/><polygon fill="#181818" points="178.5,347.5542,182.5,357.5542,186.5,347.5542,182.5,351.5542" style="stroke:#181818;stroke-width:1.0;"/><line style="stroke:#181818;stroke-width:1.0;" x1="182.5" x2="182.5" y1="391.5229" y2="411.5229"/><polygon fill="#181818" points="178.5,401.5229,182.5,411.5229,186.5,401.5229,182.5,405.5229" style="stroke:#181818;stroke-width:1.0;"/><line style="stroke:#181818;stroke-width:1.0;" x1="106" x2="106" y1="527.2021" y2="547.2021"/><polygon fill="#181818" points="102,537.2021,106,547.2021,110,537.2021,106,541.2021" style="stroke:#181818;stroke-width:1.0;"/><line style="stroke:#181818;stroke-width:1.0;" x1="252.5" x2="252.5" y1="527.2021" y2="554.1865"/><polygon fill="#181818" points="248.5,544.1865,252.5,554.1865,256.5,544.1865,252.5,548.1865" style="stroke:#181818;stroke-width:1.0;"/><line style="stroke:#181818;stroke-width:1.0;" x1="106" x2="106" y1="595.1396" y2="615.1396"/><polygon fill="#181818" points="102,605.1396,106,615.1396,110,605.1396,106,609.1396" style="stroke:#181818;stroke-width:1.0;"/><line style="stroke:#181818;stroke-width:1.0;" x1="252.5" x2="252.5" y1="588.1553" y2="615.1396"/><polygon fill="#181818" points="248.5,605.1396,252.5,615.1396,256.5,605.1396,252.5,609.1396" style="stroke:#181818;stroke-width:1.0;"/><line style="stroke:#181818;stroke-width:1.0;" x1="258.5" x2="258.5" y1="724.1084" y2="744.1084"/><polygon fill="#181818" points="254.5,734.1084,258.5,744.1084,262.5,734.1084,258.5,738.1084" style="stroke:#181818;stroke-width:1.0;"/><line style="stroke:#181818;stroke-width:1.0;" x1="116.5" x2="106.5" y1="668.1396" y2="668.1396"/><line style="stroke:#181818;stroke-width:1.0;" x1="106.5" x2="106.5" y1="668.1396" y2="690.1396"/><polygon fill="#181818" points="102.5,680.1396,106.5,690.1396,110.5,680.1396,106.5,684.1396" style="stroke:#181818;stroke-width:1.0;"/><line style="stroke:#181818;stroke-width:1.0;" x1="248.5" x2="258.5" y1="668.1396" y2="668.1396"/><line style="stroke:#181818;stroke-width:1.0;" x1="258.5" x2="258.5" y1="668.1396" y2="690.1396"/><polygon fill="#181818" points="254.5,680.1396,258.5,690.1396,262.5,680.1396,258.5,684.1396" style="stroke:#181818;stroke-width:1.0;"/><line style="stroke:#181818;stroke-width:1.0;" x1="106.5" x2="106.5" y1="724.1084" y2="771.1084"/><line style="stroke:#181818;stroke-width:1.0;" x1="106.5" x2="341" y1="771.1084" y2="771.1084"/><polygon fill="#181818" points="337,639.7529,341,629.7529,345,639.7529,341,635.7529" style="stroke:#181818;stroke-width:1.0;"/><line style="stroke:#181818;stroke-width:1.0;" x1="341" x2="341" y1="477.4917" y2="771.1084"/><line style="stroke:#181818;stroke-width:1.0;" x1="341" x2="251" y1="477.4917" y2="477.4917"/><polygon fill="#181818" points="261,473.4917,251,477.4917,261,481.4917,257,477.4917" style="stroke:#181818;stroke-width:1.0;"/><line style="stroke:#181818;stroke-width:1.0;" x1="182.5" x2="182.5" y1="621.1396" y2="656.1396"/><polygon fill="#181818" points="178.5,646.1396,182.5,656.1396,186.5,646.1396,182.5,650.1396" style="stroke:#181818;stroke-width:1.0;"/><line style="stroke:#181818;stroke-width:1.0;" x1="182.5" x2="182.5" y1="489.4917" y2="521.2021"/><polygon fill="#181818" points="178.5,511.2021,182.5,521.2021,186.5,511.2021,182.5,515.2021" style="stroke:#181818;stroke-width:1.0;"/><line style="stroke:#181818;stroke-width:1.0;" x1="114" x2="24" y1="477.4917" y2="477.4917"/><polygon fill="#181818" points="20,631.7529,24,641.7529,28,631.7529,24,635.7529" style="stroke:#181818;stroke-width:1.0;"/><line style="stroke:#181818;stroke-width:1.0;" x1="24" x2="24" y1="477.4917" y2="788.1084"/><line style="stroke:#181818;stroke-width:1.0;" x1="24" x2="182.5" y1="788.1084" y2="788.1084"/><line style="stroke:#181818;stroke-width:1.0;" x1="182.5" x2="182.5" y1="788.1084" y2="808.1084"/><polygon fill="#181818" points="178.5,798.1084,182.5,808.1084,186.5,798.1084,182.5,802.1084" style="stroke:#181818;stroke-width:1.0;"/><line style="stroke:#181818;stroke-width:1.0;" x1="182.5" x2="182.5" y1="445.4917" y2="465.4917"/><polygon fill="#181818" points="178.5,455.4917,182.5,465.4917,186.5,455.4917,182.5,459.4917" style="stroke:#181818;stroke-width:1.0;"/><line style="stroke:#181818;stroke-width:1.0;" x1="182.5" x2="182.5" y1="842.0771" y2="862.0771"/><polygon fill="#181818" points="178.5,852.0771,182.5,862.0771,186.5,852.0771,182.5,856.0771" style="stroke:#181818;stroke-width:1.0;"/><!--SRC=[PL11QiCm4Bpx5Nkq8I-m3uKw57ee50ezvQ9OQsUnjUjASe9_tvNi99IU97PdPcScHEDZKHyfT4i8G1OD44ClVd5DKRSUJKImtlGnpPtnevKRDyNjGXD2USmRHTdrfG8AKB9K1K3TYdF8yG1dRuX35EyE9pPieHCEo67PheMcGBQxsegXAketyICSs_TFrPqba7BNfvTuGPYzwC9Ckp7zPtTffSv71NyjPqSwT0gzOdBo99K9WxPAMBXA91uUUHuWCsUc_PCg4VNHUFV2DD29dHaHkelX0JNE1WCpQEuD_2qn6uFpPBfneX0JIcFlUjH3sMvqZVopaCztDGxldMIP3x7KhuySMMCAU3UdYDUa3-a0sYQFjFXvkqNzlw8_q0zROzfUbDnVwbr39Dul]--></g></svg>