<?xml version="1.0" encoding="us-ascii" standalone="no"?><svg xmlns="http://www.w3.org/2000/svg" xmlns:xlink="http://www.w3.org/1999/xlink" contentStyleType="text/css" height="454px" preserveAspectRatio="none" style="width:724px;height:454px;background:#FFFFFF;" version="1.1" viewBox="0 0 724 454" width="724px" zoomAndPan="magnify"><defs/><g><!--cluster Draft--><g id="cluster_Draft"><path d="M120,81 L698,81 A12.5,12.5 0 0 1 710.5,93.5 L710.5,102.2969 L107.5,102.2969 L107.5,93.5 A12.5,12.5 0 0 1 120,81 " fill="#F1F1F1" style="stroke:#F1F1F1;stroke-width:1.0;"/><rect fill="none" height="367.99" rx="12.5" ry="12.5" style="stroke:#181818;stroke-width:0.5;" width="603" x="107.5" y="81"/><line style="stroke:#181818;stroke-width:0.5;" x1="107.5" x2="710.5" y1="102.2969" y2="102.2969"/><text fill="#000000" font-family="sans-serif" font-size="14" lengthAdjust="spacing" textLength="33" x="392.5" y="97.9951">Draft</text></g><!--cluster UnderReview--><g id="cluster_UnderReview"><path d="M168,230 L586,230 A12.5,12.5 0 0 1 598.5,242.5 L598.5,251.2969 L155.5,251.2969 L155.5,242.5 A12.5,12.5 0 0 1 168,230 " fill="#F1F1F1" style="stroke:#F1F1F1;stroke-width:1.0;"/><rect fill="none" height="178.99" rx="12.5" ry="12.5" style="stroke:#181818;stroke-width:0.5;" width="443" x="155.5" y="230"/><line style="stroke:#181818;stroke-width:0.5;" x1="155.5" x2="598.5" y1="251.2969" y2="251.2969"/><text fill="#000000" font-family="sans-serif" font-size="14" lengthAdjust="spacing" textLength="91" x="331.5" y="246.9951">UnderReview</text></g><ellipse cx="654.5" cy="134" fill="#181818" rx="10" ry="10" style="stroke:none;stroke-width:1.0;"/><g id="Draft.Ready"><rect fill="#F1F1F1" height="50" rx="12.5" ry="12.5" style="stroke:#181818;stroke-width:0.5;" width="63" x="623" y="273.14"/><line style="stroke:#181818;stroke-width:0.5;" x1="623" x2="686" y1="299.4369" y2="299.4369"/><text fill="#000000" font-family="sans-serif" font-size="14" lengthAdjust="spacing" textLength="43" x="633" y="291.1351">Ready</text></g><g id="Draft.UnderReview.Approved"><rect fill="#F1F1F1" height="50.2656" rx="12.5" ry="12.5" style="stroke:#181818;stroke-width:0.5;" width="86" x="488.5" y="273"/><line style="stroke:#181818;stroke-width:0.5;" x1="488.5" x2="574.5" y1="299.2969" y2="299.2969"/><text fill="#000000" font-family="sans-serif" font-size="14" lengthAdjust="spacing" textLength="66" x="498.5" y="290.9951">Approved</text><text fill="#000000" font-family="sans-serif" font-size="12" lengthAdjust="spacing" textLength="59" x="493.5" y="315.4355">Approved</text></g><g id="Draft.UnderReview.ChangesRequired"><rect fill="#F1F1F1" height="50.2656" rx="12.5" ry="12.5" style="stroke:#181818;stroke-width:0.5;" width="145" x="309" y="273"/><line style="stroke:#181818;stroke-width:0.5;" x1="309" x2="454" y1="299.2969" y2="299.2969"/><text fill="#000000" font-family="sans-serif" font-size="14" lengthAdjust="spacing" textLength="125" x="319" y="290.9951">ChangesRequired</text><text fill="#000000" font-family="sans-serif" font-size="12" lengthAdjust="spacing" textLength="115" x="314" y="315.4355">Changes Required</text></g><g id="Draft.UnderReview.Blacklisted"><rect fill="#F1F1F1" height="50.2656" rx="12.5" ry="12.5" style="stroke:#181818;stroke-width:0.5;" width="94" x="179.5" y="273"/><line style="stroke:#181818;stroke-width:0.5;" x1="179.5" x2="273.5" y1="299.2969" y2="299.2969"/><text fill="#000000" font-family="sans-serif" font-size="14" lengthAdjust="spacing" textLength="74" x="189.5" y="290.9951">Blacklisted</text><text fill="#000000" font-family="sans-serif" font-size="12" lengthAdjust="spacing" textLength="67" x="184.5" y="315.4355">Blacklisted</text></g><ellipse cx="63.5" cy="16" fill="#181818" rx="10" ry="10" style="stroke:none;stroke-width:1.0;"/><g id="Merged"><rect fill="#F1F1F1" height="50" rx="12.5" ry="12.5" style="stroke:#181818;stroke-width:0.5;" width="73" x="7" y="109"/><line style="stroke:#181818;stroke-width:0.5;" x1="7" x2="80" y1="135.2969" y2="135.2969"/><text fill="#000000" font-family="sans-serif" font-size="14" lengthAdjust="spacing" textLength="53" x="17" y="126.9951">Merged</text></g><!--link *start* to Draft--><g id="link_*start*_Draft"><path d="M69.94,24.29 C77.56,33.27 90.14,49.28 97.5,65 C100.7075,71.86 103.4169,79.3862 105.6814,86.8536 C106.2475,88.7204 106.7859,90.5836 107.2972,92.4317 C107.3611,92.6627 107.4246,92.8935 107.4877,93.1241 " fill="none" id="*start*-to-Draft" style="stroke:#181818;stroke-width:1.0;"/><polygon fill="#181818" points="107.4877,93.1241,108.9706,83.3875,106.1681,88.3013,101.2542,85.4989,107.4877,93.1241" style="stroke:#181818;stroke-width:1.0;"/></g><!--link *start*Draft to Ready--><g id="link_*start*Draft_Ready"><path d="M654.5,144.19 C654.5,167.46 654.5,229.57 654.5,267.1 " fill="none" id="*start*Draft-to-Ready" style="stroke:#181818;stroke-width:1.0;"/><polygon fill="#181818" points="654.5,271.9,658.5,262.9,654.5,266.9,650.5,262.9,654.5,271.9" style="stroke:#181818;stroke-width:1.0;"/></g><!--link Ready to UnderReview--><g id="link_Ready_UnderReview"><path d="M622.53,319.78 C617.455,322.98 612.085,326.3225 606.665,329.63 C603.955,331.2838 601.2325,332.9288 598.5281,334.5428 " fill="none" id="Ready-to-UnderReview" style="stroke:#181818;stroke-width:1.0;"/><polygon fill="#181818" points="598.5281,334.5428,608.3063,333.3651,602.8216,331.9803,604.2064,326.4956,598.5281,334.5428" style="stroke:#181818;stroke-width:1.0;"/><text fill="#000000" font-family="sans-serif" font-size="13" lengthAdjust="spacing" textLength="112" x="563.5" y="366.3369">Submit for Voting</text></g><!--link *start* to Merged--><g id="link_*start*_Merged"><path d="M61.93,26.11 C59.11,42.49 53.05,77.62 48.65,103.15 " fill="none" id="*start*-to-Merged" style="stroke:#181818;stroke-width:1.0;"/><polygon fill="#181818" points="47.68,107.77,53.1629,99.5885,48.5367,102.8439,45.2812,98.2177,47.68,107.77" style="stroke:#181818;stroke-width:1.0;"/></g><!--link Draft to Approved--><g id="link_Draft_Approved"><path d="M115.5,135.05 C115.53,135.99 116.03,151.07 123.5,159 C161.91,199.8 185.67,194.42 240.5,206 C265.63,211.32 448.84,201.91 471.5,214 C493.03,225.49 508.71,248.52 518.63,267.43 " fill="none" id="Draft-to-Approved" style="stroke:#181818;stroke-width:1.0;"/><polygon fill="#181818" points="521.27,271.65,520.7725,261.8137,519.0111,267.1894,513.6354,265.428,521.27,271.65" style="stroke:#181818;stroke-width:1.0;"/><text fill="#000000" font-family="sans-serif" font-size="13" lengthAdjust="spacing" textLength="109" x="241.5" y="202.0669">Merge into DCIPs</text></g><!--link ChangesRequired to UnderReview--><g id="link_ChangesRequired_UnderReview"><path d="M327.52,323.71 C299.78,336.6 271.35,350.32 269.5,353.27 C265.48,359.67 264.56,364.56 269.5,370.27 C298.73,404.04 462.93,400.61 475.71,400.29 " fill="none" id="ChangesRequired-to-UnderReview" style="stroke:#181818;stroke-width:1.0;"/><polygon fill="#181818" points="475.71,400.29,466.6127,396.5165,470.7116,400.4152,466.8129,404.514,475.71,400.29" style="stroke:#181818;stroke-width:1.0;"/><text fill="#000000" font-family="sans-serif" font-size="13" lengthAdjust="spacing" textLength="126" x="270.5" y="366.3369">Resubmit for Voting</text></g><!--SRC=[PO_13i8W44JlVCMUJVe37aoqlNWmCHYzD1xGRf5OeSAsnXZ_NKfBGkm9vismmvQBCsJP2WehQcBCaI0S1NmOG3dP74NrzZgSWHnrXPPZh_05IpXqbuSYg8s5ao6b9Vl6OMbm6BbkMsjwhFohUFKqlmajqN5yTie6So8GaGzj6d6zDyfH22HgQ8jVtQ6Ldh1nYO4aZS44fSb0aM_tZlttpbVZw6RB_G00]--></g></svg>